<?xml version="1.0" encoding="UTF-8"?>
<svg viewBox="0 0 300.54556 295.40631" xmlns="http://www.w3.org/2000/svg">
 <defs>
  <radialGradient id="a" cx="201.63" cy="257.26" r="122.52" gradientTransform="matrix(-.00775 .22259 -.2754 -.00959 500.19 433.01)" gradientUnits="userSpaceOnUse">
   <stop stop-color="#bcd35f" offset="0"/>
   <stop stop-color="#bcd35f" offset="1"/>
  </radialGradient>
 </defs>
 <g transform="translate(-112.61 -170.57)">
  <path d="m185.74 381.9c-5.9434-12.357-25.31-34.028-42.967-14.838s7.6236 65.768 27.213 65.575 21.698-38.38 15.755-50.737z" fill="#bcd35f" stroke="#222b00" stroke-width="10"/>
  <path d="m168.62 402.91c-11.412-4.9409-23.156 2.9525-31.513 14.056-10.288 1.4588-23.46 7.1459-18.439 17.017 7.7238 12.496 17.088-1.5546 25.994-3.3498-3.343 6.4141-8.9881 17.916-0.3516 22.262s12.526-9.0381 17.914-13.404c-0.28447 5.5438-3.8333 23.245 13.609 21.343 12.971-2.7102 8.64-16.842 3.1116-23.532-2.5361-3.7556-8.3783-9.8307-7.2666-13.024 4.3008-9.9232 8.3526-16.427-3.0596-21.368z" fill="#bcd35f" stroke="#222b00" stroke-linecap="round" stroke-linejoin="round" stroke-width="10"/>
  <path d="m341.61 381.9c5.9434-12.357 25.31-34.028 42.967-14.838s-7.6236 65.768-27.213 65.575-21.698-38.38-15.755-50.737z" fill="#bcd35f" stroke="#222b00" stroke-width="10"/>
  <path d="m357.14 402.91c11.412-4.9409 23.156 2.9525 31.513 14.056 10.288 1.4588 23.46 7.1459 18.439 17.017-7.7238 12.496-17.088-1.5546-25.994-3.3498 3.343 6.4141 8.9881 17.916 0.3516 22.262s-12.526-9.0381-17.914-13.404c0.28447 5.5438 3.8333 23.245-13.609 21.343-12.971-2.7102-8.64-16.842-3.1116-23.532 2.5361-3.7556 8.3783-9.8307 7.2666-13.024-4.3008-9.9232-8.3526-16.427 3.0596-21.368z" fill="#bcd35f" stroke="#222b00" stroke-linecap="round" stroke-linejoin="round" stroke-width="10"/>
  <path d="m178.57 356.29c-7.2902 6.9628-26.118 21.097-17.5 45.357s63.391 47.29 100.71 48.929 92.438-22.358 100.71-48.929-14.917-32.71-27.143-40.714c-30.083-17.29-128.42-23.034-156.79-4.6429z" fill="#bcd35f" stroke="#222b00" stroke-width="10"/>
  <path d="m264.69 386.66c-32.079 0-58.094 20.695-58.094 46.219 0 1.4903 0.10789 2.9833 0.28125 4.4375 17.997 7.4995 38.197 12.516 54.906 13.25 18.504 0.8124 41.376-4.6767 60.75-13.656 0.14338-1.3244 0.21875-2.6773 0.21875-4.0312 0-25.524-25.984-46.219-58.062-46.219z" fill="#e5ff80"/>
  <path d="m178.57 356.29c-7.2902 6.9628-26.118 21.097-17.5 45.357s63.391 47.29 100.71 48.929 92.438-22.358 100.71-48.929-14.917-32.71-27.143-40.714c-30.083-17.29-128.42-23.034-156.79-4.6429z" fill="none" stroke="#222b00" stroke-width="10"/>
  <path d="m308.53 372.71s-1.6117 29.478 13.547 30.522c24.688-9.1861 7.076-40.016 7.076-40.016-7.4367 0.53873-9.374-8.2542-20.623 9.4937z" fill="#ff80b2" stroke="#222b00" stroke-linecap="round" stroke-linejoin="round" stroke-width="5"/>
  <path d="m316.43 371.29c2.2971 1.2503 4.5961 2.4572 6.4286 13.929" fill="none" stroke="#222b00" stroke-linecap="round" stroke-width="2.5"/>
  <path d="m192.14 273.43c-19.534 13.762-49.999 17.938-44.286 49.286s72.129 53.915 115 54.643 109.73-23.166 117.86-54.643-18.909-34.538-38.571-49.286-52.315-31.046-79.286-30.357-51.18 16.595-70.714 30.357z" fill="url(#a)" stroke="#222b00" stroke-width="10"/>
  <path transform="matrix(1 0 0 1.4248 0 -121.79)" d="m266.18 248.03c0 21.339-18.204 38.638-40.659 38.638s-40.659-17.299-40.659-38.638 18.204-38.638 40.659-38.638 40.659 17.299 40.659 38.638z" fill="#fff" stroke="#222b00" stroke-linecap="round" stroke-linejoin="round" stroke-width="8.3776"/>
  <path transform="matrix(1 0 0 .78774 0 57.299)" d="m345.47 240.2c0 29.568-17.186 53.538-38.386 53.538s-38.386-23.97-38.386-53.538 17.186-53.538 38.386-53.538 38.386 23.97 38.386 53.538z" fill="#fff" stroke="#222b00" stroke-linecap="round" stroke-linejoin="round" stroke-width="11.267"/>
  <path d="m209.4 211.37c-8.2336 4.9864-10.864 15.695-5.8776 23.929s15.695 10.864 23.929 5.8776c7.4169-4.4918 10.255-13.622 7.1064-21.41 0.0882 3.247-1.5911 6.5008-4.6725 8.367-4.482 2.7144-10.258 1.4301-12.849-2.8481s-1.0312-9.9556 3.4508-12.67c2.241-1.3572 4.7779-1.6948 7.0954-1.1824-5.3889-3.3236-12.395-3.5682-18.182-0.0629z"/>
  <path transform="translate(9.0914 -1.0102)" d="m247.49 305.61c0 5.9973-3.0528 10.859-6.8185 10.859s-6.8185-4.8618-6.8185-10.859 3.0528-10.859 6.8185-10.859 6.8185 4.8618 6.8185 10.859z" fill="#222b00"/>
  <path transform="translate(31.567 -1.7678)" d="m247.49 305.61c0 5.9973-3.0528 10.859-6.8185 10.859s-6.8185-4.8618-6.8185-10.859 3.0528-10.859 6.8185-10.859 6.8185 4.8618 6.8185 10.859z" fill="#222b00"/>
  <path d="m301.12 227.38c6.0843 3.6848 8.0281 11.598 4.3433 17.682s-11.598 8.0281-17.682 4.3433c-5.4808-3.3192-7.5777-10.066-5.2514-15.821-0.0653 2.3994 1.1758 4.8039 3.4528 6.1829 3.312 2.0058 7.5801 1.0568 9.4948-2.1047s0.76198-7.3568-2.55-9.3626c-1.656-1.0029-3.5306-1.2524-5.2432-0.87373 3.9822-2.456 9.1591-2.6367 13.436-0.0466z"/>
 </g>
</svg>
